<?xml version="1.0" encoding="UTF-8" standalone="no"?>
<svg
   xmlns:dc="http://purl.org/dc/elements/1.1/"
   xmlns:cc="http://creativecommons.org/ns#"
   xmlns:rdf="http://www.w3.org/1999/02/22-rdf-syntax-ns#"
   xmlns:svg="http://www.w3.org/2000/svg"
   xmlns="http://www.w3.org/2000/svg"
   viewBox="0 0 1110 356.66666"
   height="356.66666"
   width="1110"
   xml:space="preserve"
   id="svg2"
   version="1.1"><metadata
     id="metadata8"><rdf:RDF><cc:Work
         rdf:about=""><dc:format>image/svg+xml</dc:format><dc:type
           rdf:resource="http://purl.org/dc/dcmitype/StillImage" /></cc:Work></rdf:RDF></metadata><defs
     id="defs6"><clipPath
       id="clipPath18"
       clipPathUnits="userSpaceOnUse"><path
         id="path16"
         d="M 0,6.651 H 832.5 V 267.5 H 0 Z" /></clipPath></defs><g
     transform="matrix(1.3333333,0,0,-1.3333333,0,356.66667)"
     id="g10"><g
       id="g12"><g
         clip-path="url(#clipPath18)"
         id="g14"><g
           transform="translate(328.7632,102.4258)"
           id="g20"><path
             id="path22"
             style="fill:#c4922c;fill-opacity:1;fill-rule:nonzero;stroke:none"
             d="m 0,0 c -17.089,-18.092 -49.453,-9.669 -52.792,16.046 -1.41,10.852 3.226,22.42 11.968,29.061 10.94,8.311 26.957,7.661 37.481,-1.014 3.149,-2.595 7.515,-3.025 10.607,0 2.684,2.626 3.117,8.037 0,10.607 -12.2,10.055 -28.666,14.217 -43.968,9.149 -13.132,-4.348 -23.241,-14.381 -28.209,-27.217 -10.052,-25.974 6.225,-56.121 33.943,-60.858 15.313,-2.617 30.863,2.278 41.577,13.62 C 17.233,-3.591 6.645,7.035 0,0" /></g><g
           transform="translate(206.3809,167.9644)"
           id="g24"><path
             id="path26"
             style="fill:#162b49;fill-opacity:1;fill-rule:nonzero;stroke:none"
             d="m 0,0 c -19.249,-0.348 -36.169,-12.222 -42.798,-30.35 -6.503,-17.781 -0.607,-38.727 14.055,-50.619 14.576,-11.824 35.398,-13.704 51.677,-4.114 16.73,9.855 25.061,29.348 21.627,48.277 C 40.69,-15.466 21.285,-0.385 0,0 c -9.656,0.175 -9.657,-14.825 0,-15 12.624,-0.228 24.192,-7.94 28.554,-19.964 4.452,-12.271 0.705,-26.282 -9.413,-34.576 -21.518,-17.639 -54.222,2.273 -49.106,29.41 2.739,14.527 15.279,24.864 29.965,25.13 9.641,0.174 9.672,15.175 0,15" /></g><g
           transform="translate(244.4785,126.4248)"
           id="g28"><path
             id="path30"
             style="fill:#e7e8e9;fill-opacity:1;fill-rule:nonzero;stroke:none"
             d="M 0,0 V 76.317 Z" /></g><g
           transform="translate(251.9785,126.4248)"
           id="g32"><path
             id="path34"
             style="fill:#162b49;fill-opacity:1;fill-rule:nonzero;stroke:none"
             d="m 0,0 v 76.317 c 0,9.652 -15,9.668 -15,0 V 0 c 0,-9.651 15,-9.668 15,0 v 76.317 c 0,9.652 -15,9.668 -15,0 V 0 c 0,-9.651 15,-9.668 15,0" /></g><g
           transform="translate(284.7651,91.1787)"
           id="g36"><path
             id="path38"
             style="fill:#c4922c;fill-opacity:1;fill-rule:nonzero;stroke:none"
             d="M 0,0 C 17.885,17.987 35.77,35.976 53.655,53.964 60.469,60.818 49.867,71.429 43.049,64.571 25.164,46.583 7.279,28.595 -10.607,10.606 -17.421,3.753 -6.819,-6.858 0,0" /></g><g
           transform="translate(448.4629,122.918)"
           id="g40"><path
             id="path42"
             style="fill:#162b49;fill-opacity:1;fill-rule:nonzero;stroke:none"
             d="m 0,0 c 0.227,12.579 7.834,24.165 19.819,28.554 12.197,4.467 26.128,0.675 34.335,-9.413 17.392,-21.38 -2.061,-54.26 -29.2,-49.106 C 10.46,-27.212 0.263,-14.621 0,0 c -0.173,9.641 -15.174,9.672 -15,0 0.345,-19.197 12.114,-36.155 30.208,-42.798 17.727,-6.509 38.548,-0.578 50.371,14.055 11.785,14.587 13.633,35.397 4.097,51.677 C 59.898,39.629 40.498,48.001 21.626,44.561 0.323,40.678 -14.618,21.214 -15,0 -15.174,-9.656 -0.174,-9.657 0,0" /></g><g
           transform="translate(413.9014,102.0781)"
           id="g44"><path
             id="path46"
             style="fill:#162b49;fill-opacity:1;fill-rule:nonzero;stroke:none"
             d="m 0,0 c -8.762,-8.756 -21.89,-12.058 -33.537,-7.224 -11.762,4.883 -19.216,16.746 -18.876,29.406 0.324,12.002 7.995,23.047 19.154,27.535 12.218,4.915 25.634,0.941 34.339,-8.523 6.55,-7.12 17.136,3.508 10.607,10.606 -20.189,21.948 -56.143,18.827 -72.174,-6.342 -16.2,-25.432 -2.119,-60.778 26.892,-68.425 15.864,-4.181 32.695,0.86 44.202,12.36 C 17.444,-3.774 6.841,6.835 0,0" /></g><g
           transform="translate(509.542,157.4644)"
           id="g48"><path
             id="path50"
             style="fill:#162b49;fill-opacity:1;fill-rule:nonzero;stroke:none"
             d="m 0,0 c -0.015,-24.405 -0.03,-48.809 -0.045,-73.214 -0.005,-9.652 14.995,-9.668 15,0 C 14.97,-48.809 14.985,-24.405 15,0 15.006,9.652 0.006,9.668 0,0" /></g><g
           transform="translate(538.5898,144.5474)"
           id="g52"><path
             id="path54"
             style="fill:#ffffff;fill-opacity:1;fill-rule:nonzero;stroke:none"
             d="M 0,0 H 63.586" /></g><g
           transform="translate(538.5898,137.0479)"
           id="g56"><path
             id="path58"
             style="fill:#152b49;fill-opacity:1;fill-rule:nonzero;stroke:none"
             d="m 0,0 h 63.586 c 9.652,0 9.668,15 0,15 H 0 C -9.651,15 -9.668,0 0,0" /></g><g
           transform="translate(568.7998,172.7598)"
           id="g60"><path
             id="path62"
             style="fill:#ffffff;fill-opacity:1;fill-rule:nonzero;stroke:none"
             d="M 0,0 V -88.727" /></g><g
           transform="translate(561.2998,172.7598)"
           id="g64"><path
             id="path66"
             style="fill:#152b49;fill-opacity:1;fill-rule:nonzero;stroke:none"
             d="m 0,0 v -77.718 -11.009 c 0,-9.652 15,-9.668 15,0 V -11.009 0 C 15,9.652 0,9.668 0,0" /></g><g
           transform="translate(569.0117,177.4395)"
           id="g68"><path
             id="path70"
             style="fill:#ffffff;fill-opacity:1;fill-rule:nonzero;stroke:none"
             d="M 0,0 -0.254,-9.592" /></g><g
           transform="translate(561.5117,177.4395)"
           id="g72"><path
             id="path74"
             style="fill:#152b49;fill-opacity:1;fill-rule:nonzero;stroke:none"
             d="m 0,0 -0.254,-9.592 c -0.102,-3.925 3.525,-7.678 7.5,-7.5 4.152,0.186 7.39,3.295 7.5,7.5 L 15,0 C 15.103,3.925 11.476,7.678 7.5,7.5 3.348,7.314 0.11,4.205 0,0" /></g><g
           transform="translate(576.2227,177)"
           id="g76"><path
             id="path78"
             style="fill:#132b49;fill-opacity:1;fill-rule:nonzero;stroke:none"
             d="M 0,0 C 1.12,7.352 14.115,9.752 16.881,2.223 20.184,-6.763 34.686,-2.879 31.345,6.211 27.649,16.268 17.907,22.238 7.205,21.602 -2.748,21.011 -12.88,14.381 -14.464,3.988 c -0.615,-4.033 1.02,-8.019 5.238,-9.226 C -5.685,-6.251 -0.61,-4 0,0" /></g></g></g><text
       id="text82"
       style="font-variant:normal;font-weight:normal;font-stretch:normal;font-size:22px;font-family:GillSans;-inkscape-font-specification:GillSans;writing-mode:lr-tb;fill:#162b49;fill-opacity:1;fill-rule:nonzero;stroke:none"
       transform="matrix(1,0,0,-1,221.2144,41.2188)"><tspan
         id="tspan80"
         y="0"
         x="0 16.5 21.318001 29.788 39.424 44.242001 55.242001 60.060001 64.877998 75.877998 86.416 94.886002 101.002 105.82 116.82 122.936 133.936 144.936 154.33 159.14799 170.14799 180.686 191.224 199.936 204.754 215.754 225.14799 231.26401 246.84 256.23401 264.50601 275.04401 285.582 294.29401 300.41 310.728 320.12201 324.94">Disciplines in Engineering Career Fair</tspan></text>
</g></svg>