<?xml version="1.0" encoding="utf-8"?>
<svg style="enable-background:new 0 0 832.5 267.5;" x="0px" y="0px" viewBox="0 0 832.5 267.5" xmlns="http://www.w3.org/2000/svg">
  <defs>
    <style type="text/css">
	.st0{display:none;}
	.st1{display:inline;}
	.st2{fill:#172B49;}
	.st3{fill:#E6E7E8;}
	.st4{fill:#C4922C;}
	.st5{fill:#FFFFFF;}
	.st6{fill:#C3922C;}
	.st7{fill:#152B49;}
	.st8{fill:#142B49;}
	.st9{font-family:'GillSans';}
	.st10{font-size:22px;}
</style>
  </defs>
  <g id="cover" class="st0">
    <g class="st1">
      <g>
        <g>
          <path class="st2" d="M220,187.7c0.2-20.9,13.3-40.3,33.3-47.2c19.9-6.8,42.2-0.7,55.5,15.6c13.2,16,14.7,39.4,4.1,57.1&#10;&#9;&#9;&#9;&#9;&#9;c-10.5,17.6-31.6,27.6-51.9,23.6C237.3,232.3,220.3,211.8,220,187.7c-0.1-9.6-15.1-9.7-15,0c0.3,27.4,17.4,51.7,43.1,61.2&#10;&#9;&#9;&#9;&#9;&#9;c25.2,9.3,54.8,1.1,71.8-19.6c17.3-21,20-51.3,6-74.8c-14.1-23.6-41.9-35.7-68.8-30.5c-30.2,5.8-51.7,33.3-52.1,63.7&#10;&#9;&#9;&#9;&#9;&#9;C204.9,197.3,219.9,197.3,220,187.7z"/>
        </g>
      </g>
    </g>
    <g class="st1">
      <g>
        <path class="st2" d="M75.6,187.7c0.2-20.9,13.3-40.3,33.3-47.2c19.9-6.8,42.2-0.7,55.5,15.6c13.2,16,14.7,39.4,4.1,57.1&#10;&#9;&#9;&#9;&#9;c-10.5,17.6-31.6,27.6-51.9,23.6C92.9,232.3,75.9,211.8,75.6,187.7c-0.1-9.6-15.1-9.7-15,0c0.3,27.4,17.4,51.7,43.1,61.2&#10;&#9;&#9;&#9;&#9;c25.2,9.3,54.8,1.1,71.8-19.6c17.3-21,20-51.3,6-74.8c-14.1-23.6-41.9-35.7-68.8-30.5c-30.2,5.8-51.7,33.3-52.1,63.7&#10;&#9;&#9;&#9;&#9;C60.5,197.3,75.5,197.3,75.6,187.7z"/>
      </g>
    </g>
    <g class="st1">
      <path class="st3" d="M 183.10000610351562 185.1999969482422 L 183.10000610351562 70.19999694824219"/>
      <g>
        <path class="st2" d="M190.6,185.2c0-33.6,0-67.2,0-100.8c0-4.7,0-9.5,0-14.2c0-9.7-15-9.7-15,0c0,33.6,0,67.2,0,100.8&#10;&#9;&#9;&#9;&#9;c0,4.7,0,9.5,0,14.2C175.6,194.8,190.6,194.8,190.6,185.2L190.6,185.2z"/>
      </g>
    </g>
    <g class="st1">
      <path class="st3" d="M 229.3000030517578 228.3000030517578 L 310.70001220703125 147"/>
      <g>
        <path class="st2" d="M234.6,233.6c23.8-23.8,47.5-47.5,71.3-71.3c3.3-3.3,6.7-6.7,10-10c6.8-6.8-3.8-17.4-10.6-10.6&#10;&#9;&#9;&#9;&#9;c-23.8,23.8-47.5,47.5-71.3,71.3c-3.3,3.3-6.7,6.7-10,10C217.2,229.9,227.8,240.5,234.6,233.6L234.6,233.6z"/>
      </g>
    </g>
    <g class="st1">
      <g>
        <path class="st2" d="M364.4,187.7c0.2-20.9,13.3-40.3,33.3-47.2c19.9-6.8,42.2-0.7,55.5,15.6c13.2,16,14.7,39.4,4.1,57.1&#10;&#9;&#9;&#9;&#9;c-10.5,17.6-31.6,27.6-51.9,23.6C381.8,232.3,364.7,211.8,364.4,187.7c-0.1-9.6-15.1-9.7-15,0c0.3,27.4,17.4,51.7,43.1,61.2&#10;&#9;&#9;&#9;&#9;c25.2,9.3,54.8,1.1,71.8-19.6c17.3-21,20-51.3,6-74.8c-14.1-23.6-41.9-35.7-68.8-30.5c-30.2,5.8-51.7,33.3-52.1,63.7&#10;&#9;&#9;&#9;&#9;C349.3,197.3,364.3,197.3,364.4,187.7z"/>
      </g>
    </g>
    <g class="st1">
      <g>
        <path class="st4" d="M508.9,187.7c0.2-20.9,13.3-40.3,33.3-47.2c19.9-6.8,42.2-0.7,55.5,15.6c13.2,16,14.7,39.4,4.1,57.1&#10;&#9;&#9;&#9;&#9;c-10.5,17.6-31.6,27.6-51.9,23.6C526.2,232.3,509.1,211.8,508.9,187.7c-0.1-9.6-15.1-9.7-15,0c0.3,27.4,17.4,51.7,43.1,61.2&#10;&#9;&#9;&#9;&#9;c25.2,9.3,54.8,1.1,71.8-19.6c17.3-21,20-51.3,6-74.8c-14.1-23.6-41.9-35.7-68.8-30.5c-30.2,5.8-51.7,33.3-52.1,63.7&#10;&#9;&#9;&#9;&#9;C493.7,197.3,508.7,197.3,508.9,187.7z"/>
      </g>
    </g>
    <g class="st1">
      <path class="st3" d="M 648.7999877929688 187.6999969482422 L 763.7999877929688 187.6999969482422"/>
      <g>
        <path d="M648.8,195.2c33.6,0,67.2,0,100.8,0c4.7,0,9.5,0,14.2,0c9.7,0,9.7-15,0-15c-33.6,0-67.2,0-100.8,0c-4.7,0-9.5,0-14.2,0&#10;&#9;&#9;&#9;&#9;C639.1,180.2,639.1,195.2,648.8,195.2L648.8,195.2z"/>
      </g>
    </g>
    <g class="st1">
      <ellipse class="st3" cx="735" cy="187.7" rx="28.8" ry="28.8"/>
      <g>
        <path d="M713.8,187.7c0.3-11.6,9.4-21.2,21.2-21.2c11.6,0,21.2,9.6,21.2,21.2c0,11.6-9.6,21.3-21.2,21.2&#10;&#9;&#9;&#9;&#9;C723.2,208.9,714,199.3,713.8,187.7c-0.2-9.6-15.2-9.7-15,0c0.4,15.2,9.4,28.5,23.7,34c14.1,5.4,30.8,0.8,40.4-10.8&#10;&#9;&#9;&#9;&#9;c9.6-11.7,11.2-28.6,3.4-41.7c-7.8-13.1-23-19.7-38-17.1c-17.2,3-29.1,18.5-29.5,35.6C698.5,197.3,713.5,197.3,713.8,187.7z"/>
      </g>
    </g>
  </g>
  <g id="cover_copy">
    <g>
      <g>
        <g>
          <path class="st2" d="M328.8,171.7c-17.1,18.1-49.5,9.7-52.8-16c-1.4-10.9,3.2-22.4,12-29.1c10.9-8.3,27-7.7,37.5,1&#10;&#9;&#9;&#9;&#9;&#9;c3.1,2.6,7.5,3,10.6,0c2.7-2.6,3.1-8,0-10.6c-12.2-10.1-28.7-14.2-44-9.1c-13.1,4.3-23.2,14.4-28.2,27.2&#10;&#9;&#9;&#9;&#9;&#9;c-10.1,26,6.2,56.1,33.9,60.9c15.3,2.6,30.9-2.3,41.6-13.6C346,175.3,335.4,164.7,328.8,171.7L328.8,171.7z"/>
        </g>
      </g>
    </g>
    <g>
      <g>
        <path class="st2" d="M206.4,106.2c-19.2,0.3-36.2,12.2-42.8,30.3c-6.5,17.8-0.6,38.7,14.1,50.6c14.6,11.8,35.4,13.7,51.7,4.1&#10;&#9;&#9;&#9;&#9;c16.7-9.9,25.1-29.3,21.6-48.3C247.1,121.7,227.7,106.6,206.4,106.2c-9.7-0.2-9.7,14.8,0,15c12.6,0.2,24.2,7.9,28.6,20&#10;&#9;&#9;&#9;&#9;c4.5,12.3,0.7,26.3-9.4,34.6c-21.5,17.6-54.2-2.3-49.1-29.4c2.7-14.5,15.3-24.9,30-25.1C216,121,216.1,106,206.4,106.2z"/>
      </g>
    </g>
    <g>
      <path class="st3" d="M244.5,147.7V71.4V147.7z"/>
      <g>
        <path class="st2" d="M252,147.7c0-25.4,0-50.9,0-76.3c0-9.7-15-9.7-15,0c0,25.4,0,50.9,0,76.3C237,157.4,252,157.4,252,147.7&#10;&#9;&#9;&#9;&#9;c0-25.4,0-50.9,0-76.3c0-9.7-15-9.7-15,0c0,25.4,0,50.9,0,76.3C237,157.4,252,157.4,252,147.7z"/>
      </g>
    </g>
    <g>
      <path class="st3" d="M 279.5 177.6999969482422 L 333.1000061035156 123.69999694824219"/>
      <g>
        <path class="st2" d="M284.8,183c17.9-18,35.8-36,53.7-54c6.8-6.9-3.8-17.5-10.6-10.6c-17.9,18-35.8,36-53.7,54&#10;&#9;&#9;&#9;&#9;C267.3,179.2,277.9,189.8,284.8,183L284.8,183z"/>
      </g>
    </g>
    <g>
      <g>
        <path class="st4" d="M448.5,151c0.2-12.6,7.8-24.3,19.8-28.8c12.2-4.5,26.2-0.6,34.3,9.5c17.3,21.4-1.9,54.7-29.2,49.5&#10;&#9;&#9;&#9;&#9;C458.9,178.4,448.7,165.7,448.5,151c-0.2-9.6-15.2-9.7-15,0c0.3,19.2,12.1,36.3,30.2,43c17.8,6.5,38.6,0.6,50.4-14.1&#10;&#9;&#9;&#9;&#9;c11.8-14.7,13.6-35.6,4.1-51.9c-9.7-16.7-29.1-25.2-48-21.7c-21.4,3.9-36.2,23.5-36.6,44.8C433.3,160.7,448.3,160.7,448.5,151z"/>
      </g>
    </g>
    <g>
      <g>
        <g>
          <path class="st2" d="M413.9,172.1c-8.8,8.8-21.9,12.1-33.5,7.2c-11.8-4.9-19.2-16.7-18.9-29.4c0.3-12,8-23,19.2-27.5&#10;&#9;&#9;&#9;&#9;&#9;c12.2-4.9,25.6-0.9,34.3,8.5c6.5,7.1,17.1-3.5,10.6-10.6c-20.2-21.9-56.1-18.8-72.2,6.3c-16.2,25.4-2.1,60.8,26.9,68.4&#10;&#9;&#9;&#9;&#9;&#9;c15.9,4.2,32.7-0.9,44.2-12.4C431.3,175.8,420.7,165.2,413.9,172.1L413.9,172.1z"/>
        </g>
      </g>
    </g>
    <g>
      <path class="st3" d="M 508.1000061035156 175.89999389648438 L 520 186"/>
      <g>
        <path class="st6" d="M502.8,181.2c4,3.4,7.9,6.8,11.9,10.1c3,2.5,7.7,3.1,10.6,0c2.6-2.8,3.2-7.9,0-10.6&#10;&#9;&#9;&#9;&#9;c-4-3.4-7.9-6.8-11.9-10.1c-3-2.5-7.7-3.1-10.6,0C500.2,173.4,499.6,178.5,502.8,181.2L502.8,181.2z"/>
      </g>
    </g>
    <g>
      <path class="st5" d="M 538.5999755859375 129.60000610351562 L 602.2000122070312 129.60000610351562"/>
      <g>
        <path class="st7" d="M538.6,137.1c21.2,0,42.4,0,63.6,0c9.7,0,9.7-15,0-15c-21.2,0-42.4,0-63.6,0&#10;&#9;&#9;&#9;&#9;C528.9,122.1,528.9,137.1,538.6,137.1L538.6,137.1z"/>
      </g>
    </g>
    <g>
      <path class="st5" d="M 568.7999877929688 101.4000015258789 L 568.7999877929688 190.10000610351562"/>
      <g>
        <path class="st7" d="M561.3,101.4c0,25.9,0,51.8,0,77.7c0,3.7,0,7.3,0,11c0,9.7,15,9.7,15,0c0-25.9,0-51.8,0-77.7&#10;&#9;&#9;&#9;&#9;c0-3.7,0-7.3,0-11C576.3,91.7,561.3,91.7,561.3,101.4L561.3,101.4z"/>
      </g>
    </g>
    <g>
      <path class="st5" d="M 569 96.69999694824219 L 568.7999877929688 106.30000305175781"/>
      <g>
        <path class="st7" d="M561.5,96.7c-0.1,3.2-0.2,6.4-0.3,9.6c-0.1,3.9,3.5,7.7,7.5,7.5c4.2-0.2,7.4-3.3,7.5-7.5&#10;&#9;&#9;&#9;&#9;c0.1-3.2,0.2-6.4,0.3-9.6c0.1-3.9-3.5-7.7-7.5-7.5C564.9,89.4,561.6,92.5,561.5,96.7L561.5,96.7z"/>
      </g>
    </g>
    <g>
      <g>
        <path class="st8" d="M576.2,97.2c1.1-7.4,14.1-9.8,16.9-2.2c3.3,9,17.8,5.1,14.5-4c-3.7-10.1-13.4-16-24.1-15.4&#10;&#9;&#9;&#9;&#9;c-10,0.6-20.1,7.2-21.7,17.6c-0.6,4,1,8,5.2,9.2C570.5,103.4,575.6,101.2,576.2,97.2L576.2,97.2z"/>
      </g>
    </g>
    <text transform="matrix(1 0 0 1 220.9942 226.281)" class="st2 st9 st10">Disciplines in Engineering Career Fair</text>
  </g>
</svg>